<svg width="800" height="800" viewBox="0 0 800 800" fill="none" xmlns="http://www.w3.org/2000/svg">
<g clip-path="url(#clip0_10_2)">
<g filter="url(#filter0_n_10_2)">
<path d="M800 629.065V781.588H0V629.065H649.255C649.556 596.795 644.185 560.32 623.763 533.401C605.759 509.667 578.034 496.334 541.296 493.547C538.296 499.228 532.518 503.219 525.642 503.219H494.877C484.962 503.219 476.922 495.188 476.922 485.263C476.922 475.339 484.962 467.298 494.877 467.298H525.642C533.673 467.298 540.219 472.668 542.51 479.932C583.229 483.02 614.227 498.16 634.688 525.147C657.412 555.135 663.384 594.533 663.103 629.036H800V629.065ZM400 352.212C492.178 352.212 566.905 277.495 566.905 185.307C566.905 93.1197 492.178 18.4122 400 18.4122C307.813 18.4122 233.095 93.1294 233.095 185.317C233.095 277.504 307.813 352.212 400 352.212ZM604.419 549.522C592.474 533.761 574.848 524.215 550.765 520.495C543.617 525.904 534.858 528.963 525.642 528.963H494.877C471.6 528.963 452.644 510.017 452.644 486.72C452.644 463.443 471.59 444.487 494.877 444.487H525.642C537.849 444.487 549.065 449.76 556.844 458.49C593.309 463.462 622.743 477.698 644.652 500.879C644.584 500.015 644.613 499.131 644.535 498.267L636.854 460.053C618.111 399.815 569.284 352.785 507.978 336.567C479.621 363.02 441.729 379.335 400 379.335C358.262 379.335 320.35 363.01 292.022 336.567C213.149 357.417 154.737 429.182 154.737 514.494V606.196H623.909C621.452 582.627 614.848 563.273 604.419 549.522Z" fill="url(#paint0_linear_10_2)"/>
<path d="M525.643 463.798C534.463 463.798 541.722 469.177 544.998 476.624C584.764 480.093 615.666 495.091 636.476 521.731L637.478 523.032V523.033C660.102 552.89 666.463 591.556 666.608 625.536H803.5V785.088H-3.5V625.566H645.764C645.648 594.49 639.986 560.575 620.975 535.517C604.063 513.224 578.093 500.292 543.173 497.214C539.392 502.84 533.083 506.719 525.643 506.719H494.877C483.03 506.719 473.422 497.122 473.422 485.264C473.422 473.407 483.028 463.798 494.877 463.798H525.643ZM508.873 333.184C570.86 349.581 620.318 396.883 639.742 457.577L640.195 459.014L640.249 459.187L640.285 459.363L647.967 497.577L648.004 497.764L648.021 497.953C648.072 498.514 648.085 499.058 648.096 499.485C648.107 499.948 648.115 500.285 648.141 500.605L648.918 510.488L642.108 503.283C620.83 480.769 592.17 466.839 556.371 461.958L555.091 461.783L554.23 460.818C547.099 452.814 536.825 447.987 525.643 447.986H494.877C473.524 447.987 456.144 465.375 456.144 486.72C456.144 508.084 473.533 525.463 494.877 525.463H525.643C534.076 525.463 542.097 522.665 548.652 517.704L549.834 516.81L551.299 517.036C576.061 520.86 594.593 530.763 607.207 547.406C618.146 561.829 624.891 581.866 627.39 605.833L627.793 609.695H151.236V514.494C151.236 427.544 210.768 354.426 291.128 333.184L292.997 332.69L294.411 334.009C322.125 359.879 359.195 375.835 400 375.835C440.795 375.835 477.846 359.889 505.59 334.008L507.004 332.69L508.873 333.184ZM400 14.9122C494.11 14.9122 570.404 91.1861 570.404 185.307C570.404 279.427 494.111 355.712 400 355.712C305.88 355.712 229.596 279.437 229.596 185.317C229.596 91.1962 305.88 14.9122 400 14.9122Z" stroke="url(#paint1_linear_10_2)" stroke-opacity="0.32" stroke-width="7"/>
</g>
</g>
<defs>
<filter id="filter0_n_10_2" x="-7" y="11.4122" width="814" height="777.175" filterUnits="userSpaceOnUse" color-interpolation-filters="sRGB">
<feFlood flood-opacity="0" result="BackgroundImageFix"/>
<feBlend mode="normal" in="SourceGraphic" in2="BackgroundImageFix" result="shape"/>
<feTurbulence type="fractalNoise" baseFrequency="2 2" stitchTiles="stitch" numOctaves="3" result="noise" seed="2448" />
<feColorMatrix in="noise" type="luminanceToAlpha" result="alphaNoise" />
<feComponentTransfer in="alphaNoise" result="coloredNoise1">
<feFuncA type="discrete" tableValues="1 1 1 1 1 1 1 1 1 1 1 1 1 1 1 1 1 1 1 1 1 1 1 1 1 1 1 1 1 1 1 1 1 1 1 1 1 1 1 1 1 1 1 1 1 1 1 1 1 1 1 0 0 0 0 0 0 0 0 0 0 0 0 0 0 0 0 0 0 0 0 0 0 0 0 0 0 0 0 0 0 0 0 0 0 0 0 0 0 0 0 0 0 0 0 0 0 0 0 0 "/>
</feComponentTransfer>
<feComposite operator="in" in2="shape" in="coloredNoise1" result="noise1Clipped" />
<feFlood flood-color="rgba(0, 0, 0, 0.25)" result="color1Flood" />
<feComposite operator="in" in2="noise1Clipped" in="color1Flood" result="color1" />
<feMerge result="effect1_noise_10_2">
<feMergeNode in="shape" />
<feMergeNode in="color1" />
</feMerge>
</filter>
<linearGradient id="paint0_linear_10_2" x1="400" y1="18.4122" x2="400" y2="781.588" gradientUnits="userSpaceOnUse">
<stop stop-color="white"/>
<stop offset="1" stop-color="#B17300"/>
</linearGradient>
<linearGradient id="paint1_linear_10_2" x1="400" y1="18.4122" x2="400" y2="781.588" gradientUnits="userSpaceOnUse">
<stop stop-color="#FFAE00"/>
<stop offset="1" stop-color="#835A03"/>
</linearGradient>
<clipPath id="clip0_10_2">
<rect width="800" height="800" fill="white"/>
</clipPath>
</defs>
</svg>
