<svg width="800" height="800" viewBox="0 0 800 800" fill="none" xmlns="http://www.w3.org/2000/svg">
<g clip-path="url(#clip0_11_8)">
<path d="M400 800C620.914 800 800 620.914 800 400C800 179.086 620.914 0 400 0C179.086 0 0 179.086 0 400C0 620.914 179.086 800 400 800Z" fill="url(#paint0_linear_11_8)"/>
<path d="M168.758 316.247C179.901 316.247 188.934 307.214 188.934 296.071C188.934 284.929 179.901 275.896 168.758 275.896C157.616 275.896 148.583 284.929 148.583 296.071C148.583 307.214 157.616 316.247 168.758 316.247Z" fill="white"/>
<path d="M191.251 324.326H146.251C130.346 324.348 117.458 337.234 117.438 353.139V409.639C117.435 415.423 122.121 420.117 127.907 420.12C133.691 420.124 138.385 415.438 138.388 409.653C138.388 409.648 138.388 409.644 138.388 409.639V358.964H144.638V513.627C144.635 519.411 149.321 524.105 155.107 524.108C160.891 524.111 165.585 519.425 165.588 513.641C165.588 513.636 165.588 513.632 165.588 513.627V427.689H171.838V513.627C171.835 519.411 176.521 524.105 182.307 524.108C188.091 524.111 192.785 519.425 192.788 513.641C192.788 513.636 192.788 513.632 192.788 513.627V358.962H199.038V409.638C199.038 415.422 203.729 420.113 209.513 420.113C215.298 420.113 219.988 415.422 219.988 409.638V353.137C220.023 337.259 207.179 324.359 191.301 324.325C191.284 324.326 191.266 324.326 191.251 324.326Z" fill="white"/>
<path d="M284.318 316.247C295.461 316.247 304.493 307.214 304.493 296.071C304.493 284.929 295.461 275.896 284.318 275.896C273.176 275.896 264.143 284.929 264.143 296.071C264.143 307.214 273.176 316.247 284.318 316.247Z" fill="white"/>
<path d="M306.839 324.326H261.838C245.934 324.348 233.046 337.234 233.026 353.139V409.639C233.026 415.423 237.717 420.114 243.501 420.114C249.285 420.114 253.976 415.423 253.976 409.639V358.964H260.226V513.627C260.226 519.411 264.917 524.102 270.701 524.102C276.485 524.102 281.176 519.411 281.176 513.627V427.689H287.426V513.627C287.426 519.411 292.117 524.102 297.901 524.102C303.686 524.102 308.376 519.411 308.376 513.627V358.962H314.626V409.638C314.626 415.422 319.317 420.113 325.101 420.113C330.886 420.113 335.576 415.422 335.576 409.638V353.137C335.611 337.259 322.767 324.359 306.889 324.325C306.871 324.326 306.856 324.326 306.839 324.326Z" fill="white"/>
<path d="M399.939 316.247C411.082 316.247 420.114 307.214 420.114 296.071C420.114 284.929 411.082 275.896 399.939 275.896C388.797 275.896 379.764 284.929 379.764 296.071C379.764 307.214 388.797 316.247 399.939 316.247Z" fill="white"/>
<path d="M422.5 324.326H377.5C361.595 324.348 348.708 337.234 348.687 353.139V409.639C348.687 415.423 353.378 420.114 359.162 420.114C364.947 420.114 369.637 415.423 369.637 409.639V358.964H375.887V513.627C375.887 519.411 380.578 524.102 386.362 524.102C392.147 524.102 396.837 519.411 396.837 513.627V427.689H403.087V513.627C403.095 519.411 407.791 524.096 413.575 524.088C419.35 524.08 424.03 519.4 424.036 513.627V358.962H430.286V409.638C430.278 415.422 434.963 420.119 440.747 420.125C446.531 420.133 451.228 415.448 451.235 409.664C451.235 409.655 451.235 409.647 451.235 409.638V353.137C451.269 337.259 438.425 324.359 422.547 324.325C422.534 324.326 422.517 324.326 422.5 324.326Z" fill="white"/>
<path d="M515.56 316.247C526.702 316.247 535.735 307.214 535.735 296.071C535.735 284.929 526.702 275.896 515.56 275.896C504.417 275.896 495.385 284.929 495.385 296.071C495.385 307.214 504.417 316.247 515.56 316.247Z" fill="white"/>
<path d="M538.09 324.326H493.089C477.185 324.348 464.297 337.234 464.277 353.139V409.639C464.285 415.423 468.98 420.108 474.764 420.1C480.539 420.092 485.219 415.413 485.225 409.639V358.964H491.475V513.627C491.483 519.411 496.179 524.096 501.963 524.088C507.738 524.08 512.418 519.4 512.424 513.627V427.689H518.674V513.627C518.682 519.411 523.377 524.096 529.161 524.088C534.937 524.08 539.616 519.4 539.622 513.627V358.962H545.872V409.638C545.865 415.422 550.549 420.119 556.333 420.125C562.118 420.133 566.815 415.448 566.821 409.664C566.821 409.655 566.821 409.647 566.821 409.638V353.137C566.855 337.259 554.012 324.359 538.133 324.325C538.122 324.326 538.107 324.326 538.09 324.326Z" fill="white"/>
<path d="M631.501 316.247C642.643 316.247 651.676 307.214 651.676 296.071C651.676 284.929 642.643 275.896 631.501 275.896C620.359 275.896 611.326 284.929 611.326 296.071C611.326 307.214 620.359 316.247 631.501 316.247Z" fill="white"/>
<path d="M654.028 324.326H609.027C593.123 324.348 580.235 337.234 580.215 353.139V409.639C580.223 415.423 584.918 420.108 590.702 420.1C596.477 420.092 601.157 415.413 601.163 409.639V358.964H607.413V513.627C607.421 519.411 612.117 524.096 617.901 524.088C623.676 524.08 628.356 519.4 628.362 513.627V427.689H634.612V513.627C634.62 519.411 639.315 524.096 645.099 524.088C650.874 524.08 655.554 519.4 655.56 513.627V358.962H661.81V409.638C661.803 415.422 666.487 420.119 672.271 420.125C678.056 420.133 682.753 415.448 682.759 409.664C682.759 409.655 682.759 409.647 682.759 409.638V353.137C682.793 337.259 669.95 324.359 654.071 324.325C654.06 324.326 654.043 324.326 654.028 324.326Z" fill="white"/>
</g>
<defs>
<linearGradient id="paint0_linear_11_8" x1="400" y1="0" x2="400" y2="800" gradientUnits="userSpaceOnUse">
<stop stop-color="#967F00"/>
<stop offset="1" stop-color="#FFAE00"/>
</linearGradient>
<clipPath id="clip0_11_8">
<rect width="800" height="800" fill="white"/>
</clipPath>
</defs>
</svg>
